<?xml version="1.0" encoding="utf-8"?>
<!-- Generator: Adobe Illustrator 23.0.4, SVG Export Plug-In . SVG Version: 6.00 Build 0)  -->
<svg version="1.1" id="Layer_1" 
	xmlns="http://www.w3.org/2000/svg" 
	xmlns:xlink="http://www.w3.org/1999/xlink" x="0px" y="0px" viewBox="0 0 300 300" style="enable-background:new 0 0 300 300;" xml:space="preserve">
	<style type="text/css">
	.st0{fill:#fefefe;}
	</style>
	<g>
		<g transform="translate(-150.000000, -21.000000)">
			<path class="st0" d="M366.18,139.44c-7.04,0-13.7,1.57-19.73,4.31l-10.67-18.5c-0.01-0.01-0.01-0.02-0.02-0.03l-10.69-18.55h19.61
			c2.43,0,4.4,1.98,4.4,4.41s-1.98,4.41-4.4,4.41c-2.6,0-4.71,2.11-4.71,4.72c0,2.61,2.11,4.72,4.71,4.72
			c7.62,0,13.83-6.22,13.83-13.85c0-7.31-5.7-13.26-12.88-13.76c-0.31-0.06-0.63-0.1-0.95-0.1h-27.4c-2.6,0-4.71,2.11-4.71,4.72
			c0,0.08,0.02,0.16,0.03,0.24c-0.08,0.93,0.11,1.89,0.61,2.77l10.27,17.82h-54.66l-9.33-16.18h5.51c2.6,0,4.71-2.11,4.71-4.72
			s-2.11-4.72-4.71-4.72h-27.34c-2.6,0-4.71,2.11-4.71,4.72s2.11,4.72,4.71,4.72h10.95l12.05,20.9l-9.37,16.26
			c-6.02-2.74-12.69-4.31-19.73-4.31c-26.41,0-47.9,21.52-47.9,47.98s21.49,47.98,47.9,47.98c24.82,0,45.29-19.01,47.66-43.26h21.42
			c0,0,0,0,0,0c0,0,0,0,0,0c0.01,0,0.01,0,0.02,0c0.37,0,0.73-0.06,1.07-0.14c0.04-0.01,0.09-0.01,0.14-0.03
			c0.07-0.02,0.12-0.05,0.19-0.08c0.27-0.08,0.52-0.19,0.77-0.32c0.05-0.03,0.11-0.04,0.17-0.07c0.01-0.01,0.02-0.02,0.03-0.02
			c0.04-0.02,0.07-0.05,0.11-0.08c0.14-0.09,0.27-0.19,0.4-0.29c0.11-0.09,0.23-0.18,0.33-0.27c0.05-0.05,0.1-0.09,0.14-0.14
			c0.05-0.05,0.09-0.11,0.14-0.17c0.01-0.01,0.02-0.03,0.03-0.03c0.1-0.12,0.2-0.23,0.29-0.35c0.09-0.12,0.16-0.25,0.24-0.39
			c0.01-0.02,0.02-0.03,0.03-0.05c0.03-0.04,0.06-0.08,0.09-0.12l27.04-52.27l6.43,11.16c-12.1,8.72-20.02,22.9-20.02,38.94
			c0,26.46,21.49,47.98,47.9,47.98c26.41,0,47.9-21.52,47.9-47.98S392.59,139.44,366.18,139.44z M231.56,225.97
			c-21.22,0-38.48-17.29-38.48-38.54s17.26-38.54,38.48-38.54c5.32,0,10.4,1.09,15.01,3.06l-19.1,33.12c-0.84,1.46-0.84,3.26,0,4.72
			s2.4,2.36,4.08,2.36h38.16C267.39,211.17,251.18,225.97,231.56,225.97z M239.72,182.7l14.98-26c8.11,6.14,13.71,15.4,15.01,26
			H239.72z M279.23,182.7c-1.38-14.08-8.88-26.37-19.78-34.22l6.66-11.55l26.38,45.77H279.23z M300.42,177.6l-26.16-45.38h49.63
			L300.42,177.6z M366.18,225.97c-21.22,0-38.48-17.29-38.48-38.54c0-12.54,6.04-23.68,15.34-30.72l19.07,33.08
			c0.87,1.51,2.46,2.36,4.08,2.36c0.8,0,1.61-0.2,2.35-0.63c2.25-1.3,3.02-4.19,1.72-6.45l-19.09-33.12
			c4.61-1.97,9.69-3.06,15.01-3.06c21.22,0,38.48,17.29,38.48,38.54S387.4,225.97,366.18,225.97z"/>
		</g>
	</g>
</svg>
