<?xml version="1.0" encoding="utf-8"?>
<!-- Generator: Adobe Illustrator 23.0.6, SVG Export Plug-In . SVG Version: 6.00 Build 0)  -->
<svg version="1.1" id="Layer_1" xmlns="http://www.w3.org/2000/svg" xmlns:xlink="http://www.w3.org/1999/xlink" x="0px" y="0px"
	 viewBox="0 0 395.05 356.93" style="enable-background:new 0 0 395.05 356.93;" xml:space="preserve">
<g fill="#fff" fill-opacity="0.5">
	<path d="M379.21,158.84c0,19.23-3.06,38.26-9.22,57.08c-6.13,18.8-15.34,36.29-27.65,52.49c-12.29,16.18-27.92,30.39-46.93,42.65
		c-18.99,12.24-40.77,21-65.36,26.25v-56.43c14.54-4.38,26.82-11.15,36.87-20.34c10.06-9.19,18.43-19.68,25.14-31.49
		c6.71-11.81,11.47-24.07,14.25-36.74c2.8-12.69,3.64-24.28,2.52-34.78h-70.4V18.43h140.79V158.84z M170.3,158.84
		c0,19.23-3.06,38.26-9.22,57.08c-6.13,18.8-15.35,36.29-27.66,52.49c-12.28,16.18-27.92,30.39-46.93,42.65
		c-18.99,12.24-40.78,21-65.37,26.25v-56.43c14.54-4.38,26.82-11.15,36.87-20.34c10.06-9.19,18.44-19.68,25.14-31.49
		c6.71-11.81,11.47-24.07,14.25-36.74c2.8-12.69,3.64-24.28,2.51-34.78H29.51V18.43H170.3V158.84z"/>
</g>
</svg>
