<?xml version="1.0" encoding="utf-8"?>
<!-- Generator: Adobe Illustrator 23.0.4, SVG Export Plug-In . SVG Version: 6.00 Build 0)  -->
<svg version="1.1" id="Layer_1" 
	xmlns="http://www.w3.org/2000/svg" 
	xmlns:xlink="http://www.w3.org/1999/xlink" x="0px" y="0px" viewBox="0 0 300 300" style="enable-background:new 0 0 300 300;" xml:space="preserve">
	<style type="text/css">
	.st0{fill:#fefefe;}
	</style>
	<path class="st0" d="M188.99,147.02c20.39-0.11,32.69-10.73,51.01-33.01l17.85-21.7c4.29-5.22,3.93-12.76-0.85-17.55c0,0,0,0,0,0
	l-0.14-0.14c-2.09-2.09-4.72-3.32-7.44-3.7c-0.38-2.81-1.66-5.41-3.7-7.45c-2.04-2.04-4.64-3.33-7.45-3.72
	c-0.38-2.8-1.66-5.39-3.68-7.43c-2.05-2.06-4.66-3.35-7.49-3.73c-0.38-2.72-1.61-5.35-3.7-7.44L223.23,41
	c-4.79-4.79-12.33-5.15-17.55-0.85l-21.7,17.85c-22.28,18.32-32.9,30.62-33.01,51.01c0,0.09,0,0.18,0,0.27
	c0.08,3.14-0.36,6.3-1.26,9.32L72.85,41.73c-3.95-3.95-9.17-5.46-13.97-4.03c-3.05,0.91-8.45,3.79-10.37,12.95
	c-4.02,19.08,0.94,40.36,13.96,59.9c15.65,23.48,32.32,38.39,47.11,47.45c-20.88,16.83-42.37,34.34-60.12,58.28
	c-11.7,15.78-6.73,26.52-0.5,32.75c3.48,3.49,8.38,6.58,14.78,6.58c5.04,0,11.02-1.92,17.97-7.07
	c24.4-18.09,42.11-40.06,59.24-61.31c3.09-3.83,6.14-7.62,9.2-11.34c0.94-1.14,1.54-2.47,1.83-3.87c1.82,1.5,3.85,4.3,7.43,9.52
	c0.85,1.23,1.74,2.54,2.71,3.92c1.8,2.57,3.62,5.19,5.45,7.84c21.48,30.97,41.76,60.22,63.33,62.19c0.84,0.09,1.69,0.13,2.53,0.13
	c5.78,0,11.44-2.07,15.86-5.86c0.17-0.15,0.34-0.31,0.5-0.47c5.86-5.86,6.62-12.08,6.21-16.27c-0.58-6.07-3.85-12.01-10-18.15
	l-66.6-66.6c3.02-0.89,6.18-1.32,9.32-1.26C188.81,147.02,188.9,147.03,188.99,147.02z M76.36,241.33
	c-9.74,7.22-15.96,6.46-21.06,1.36c-5.09-5.09-5.85-11.33,1.36-21.06c17.87-24.11,40.26-41.9,61.4-58.94
	c2.05,1.01,4.04,1.89,5.97,2.68c0.06,0.03,0.12,0.05,0.19,0.07c7.4,2.99,13.89,4.44,18.95,4.8
	C123.61,194.03,104.19,220.69,76.36,241.33z M239.66,221.23c9.76,9.76,8.74,16.77,3.78,21.73c-3.21,2.75-7.4,4.06-11.6,3.61
	c-19.23-1.76-42.01-37.14-62.37-66.25c-8.84-12.64-11.78-19-23.61-18.94c-0.39,0-0.79-0.01-1.2-0.03c-0.17-0.03-0.34-0.07-0.51-0.09
	c-5.68-0.6-11.18-1.97-16.43-4.08c-0.52-0.21-1.05-0.44-1.57-0.67c-1.31-0.57-2.6-1.17-3.87-1.83c-0.26-0.13-0.53-0.23-0.79-0.34
	c-15.59-7.9-34.43-23.09-51.55-48.76C52.18,78.94,56.13,58.01,57.28,52.5c1.53-7.26,6-7.65,9.22-4.43l83.29,83.29
	c0.17,0.21,0.34,0.43,0.53,0.62L166,147.65c0.24,0.24,0.5,0.46,0.76,0.67L239.66,221.23z M172.41,141.29l-15.71-15.71
	c2.27-5.21,3.38-10.85,3.24-16.53c0.09-15.75,7.11-25.52,29.74-44.13l21.7-17.85c1.63-1.34,4.01-1.23,5.51,0.27l0.14,0.14
	c0,0,0,0,0,0c1.6,1.6,1.6,4.2,0,5.8l-35.67,35.67c-1.83,1.49-2.13,4.17-0.68,6.04c1.86,1.45,4.54,1.14,6.04-0.68l35.67-35.67
	c0,0,0.01-0.01,0.01-0.01c1.61-1.6,4.2-1.59,5.8,0.01c1.6,1.61,1.59,4.2-0.01,5.8l-35.67,35.67c-1.83,1.49-2.13,4.17-0.68,6.04
	c1.86,1.45,4.54,1.14,6.04-0.68l35.67-35.67c0,0,0,0,0,0c1.6-1.6,4.2-1.6,5.8,0c1.6,1.6,1.6,4.2,0,5.8l-35.67,35.67
	c-0.5,0.31-0.91,0.73-1.23,1.23c-1.14,1.82-0.59,4.21,1.23,5.35c1.82,1.14,4.21,0.59,5.35-1.23l35.67-35.67c1.6-1.6,4.2-1.6,5.8,0
	l0.14,0.14c1.49,1.49,1.61,3.87,0.27,5.51l-17.85,21.7c-18.61,22.63-28.38,29.65-44.13,29.74
	C183.26,137.91,177.62,139.01,172.41,141.29z"/>
</svg>
