<?xml version="1.0" encoding="utf-8"?>
<!-- Generator: Adobe Illustrator 23.0.4, SVG Export Plug-In . SVG Version: 6.00 Build 0)  -->
<svg version="1.1" id="Layer_1" 
	xmlns="http://www.w3.org/2000/svg" 
	xmlns:xlink="http://www.w3.org/1999/xlink" x="0px" y="0px" viewBox="0 0 300 300" style="enable-background:new 0 0 300 300;" xml:space="preserve">
	<style type="text/css">
	.st0{fill:none;stroke:#fefefe;stroke-width:11.0297;stroke-miterlimit:10;}
	</style>
	<g>
		<path class="st0" d="M257.73,124.65l-25.33-17.72V52.56c0-1.8-1.47-3.26-3.28-3.26h-25.01c-1.8,0-3.26,1.46-3.26,3.26v32.31
		l-49.52-34.65c-1.1-0.79-2.62-0.79-3.71,0L41.29,124.65c-0.71,0.5-1.2,1.23-1.34,2.12c-0.14,0.84,0.04,1.72,0.53,2.43l14.48,20.66
		c0.65,0.91,1.66,1.4,2.69,1.4c0.63,0,1.29-0.17,1.87-0.59l6.35-4.44v100.99c0,1.8,1.48,3.27,3.28,3.27h55.91
		c1.8,0,3.26-1.48,3.26-3.27v-75.35h42.34v75.35c0,1.8,1.48,3.27,3.28,3.27h55.48c1.8,0,3.25-1.48,3.25-3.27V145.9l6.81,4.76
		c1.49,1.05,3.53,0.7,4.55-0.8l14.47-20.66c0.5-0.71,0.69-1.6,0.54-2.43C258.91,125.89,258.42,125.16,257.73,124.65z"/>
	</g>
</svg>
