<?xml version="1.0" encoding="utf-8"?>
<!-- Generator: Adobe Illustrator 23.0.4, SVG Export Plug-In . SVG Version: 6.00 Build 0)  -->
<svg version="1.1" id="Layer_1" 
	xmlns="http://www.w3.org/2000/svg" 
	xmlns:xlink="http://www.w3.org/1999/xlink" x="0px" y="0px" viewBox="0 0 300 300" style="enable-background:new 0 0 300 300;" xml:space="preserve">
	<style type="text/css">
	.st0{fill:none;stroke:#fefefe;stroke-width:6.62;}
	</style>
	<g>
		<path class="st0" d="M116.36,204.7c0.6-2.67,1.51-6.21,2.72-10.6l16.28-59.48c0.17-0.69,0.32-1.38,0.45-2.07
		c0.13-0.69,0.19-1.34,0.19-1.94c0-3.53-1.12-5.73-3.36-6.59c-2.24-0.86-6.33-1.42-12.26-1.68v-6.98
		c4.96-0.34,12.17-1.05,21.63-2.13c9.46-1.08,16.15-2,20.09-2.78l11.3-2.2l-20.56,75.38c-1.73,6.46-2.89,10.95-3.49,13.45
		c-1.55,6.38-2.33,10.52-2.33,12.41c0,1.9,0.43,3.12,1.29,3.69c0.86,0.56,1.81,0.84,2.85,0.84c2.68,0,6-2.28,9.98-6.85
		c3.98-4.57,7.47-9.35,10.5-14.35l5.82,3.75c-8.63,12.67-15.24,21.21-19.81,25.6c-7.51,7.24-15.54,10.86-24.08,10.86
		c-4.83,0-9.17-1.49-13.01-4.46s-5.76-7.52-5.76-13.64C114.81,212.76,115.33,209.36,116.36,204.7z M178.63,54.33
		c3.45,3.45,5.17,7.63,5.17,12.54s-1.73,9.12-5.17,12.61c-3.45,3.49-7.63,5.24-12.54,5.24s-9.12-1.75-12.61-5.24
		c-3.49-3.49-5.24-7.69-5.24-12.61s1.75-9.09,5.24-12.54c3.49-3.45,7.69-5.17,12.61-5.17S175.18,50.88,178.63,54.33z"/>
	</g>
</svg>
