<?xml version="1.0" encoding="utf-8"?>
<!-- Generator: Adobe Illustrator 23.0.6, SVG Export Plug-In . SVG Version: 6.00 Build 0)  -->
<svg version="1.1" id="Layer_1" xmlns="http://www.w3.org/2000/svg" xmlns:xlink="http://www.w3.org/1999/xlink" x="0px" y="0px"
	 viewBox="0 0 395.05 356.93" style="enable-background:new 0 0 395.05 356.93;" xml:space="preserve">
<g fill="#fff" fill-opacity="0.5">
	<path d="M21.13,196.9c0-19.23,3.06-38.26,9.22-57.08c6.13-18.8,15.34-36.29,27.65-52.49c12.29-16.18,27.92-30.39,46.93-42.65
		c18.99-12.24,40.77-21,65.36-26.25v56.43c-14.54,4.38-26.82,11.15-36.87,20.34s-18.43,19.68-25.14,31.49s-11.47,24.07-14.25,36.74
		c-2.8,12.69-3.64,24.28-2.52,34.78h70.4V337.3H21.13V196.9z M230.03,196.9c0-19.23,3.06-38.26,9.22-57.08
		c6.13-18.8,15.35-36.29,27.66-52.49c12.28-16.18,27.92-30.39,46.93-42.65c18.99-12.24,40.78-21,65.37-26.25v56.43
		c-14.54,4.38-26.82,11.15-36.87,20.34s-18.44,19.68-25.14,31.49c-6.71,11.81-11.47,24.07-14.25,36.74
		c-2.8,12.69-3.64,24.28-2.51,34.78h70.39V337.3H230.03V196.9z"/>
</g>
</svg>
