<?xml version="1.0" encoding="utf-8"?>
<!-- Generator: Adobe Illustrator 23.0.4, SVG Export Plug-In . SVG Version: 6.00 Build 0)  -->
<svg version="1.1" id="Layer_1" 
	xmlns="http://www.w3.org/2000/svg" 
	xmlns:xlink="http://www.w3.org/1999/xlink" x="0px" y="0px" viewBox="0 0 300 300" style="enable-background:new 0 0 300 300;" xml:space="preserve">
	<style type="text/css">
	.st0{fill:#fefefe;}
	</style>
	<g>
		<path class="st0" d="M225.25,62.18c0-7.46-6.07-13.52-13.52-13.52H88.99c-7.46,0-13.52,6.07-13.52,13.52v38.57L31.16,169.4v74.62
		h29.05v-26.33h180.3v26.33h29.05V169.4l-44.31-68.64V62.18z M258.66,166.69H42.06l26.97-41.78h162.65L258.66,166.69z M74,117.21
		l7.41-11.48h8.28h50.84h18.48h50.84h9.46l7.41,11.48H74z M132.85,98.04H97.38V78.13c0-1.23,1-2.23,2.23-2.23h31.01
		c1.23,0,2.23,1,2.23,2.23V98.04z M202.16,98.04H166.7V78.13c0-1.23,1-2.23,2.23-2.23h31.01c1.23,0,2.23,1,2.23,2.23V98.04z
		 M83.16,62.18c0-3.21,2.62-5.83,5.83-5.83h122.74c3.22,0,5.83,2.62,5.83,5.83v35.86h-7.71V78.13c0-5.47-4.45-9.92-9.92-9.92h-31.01
		c-5.47,0-9.92,4.45-9.92,9.92v19.92h-18.48V78.13c0-5.47-4.45-9.92-9.92-9.92H99.61c-5.47,0-9.92,4.45-9.92,9.92v19.92h-6.53V62.18
		z M248.2,236.33V210H52.52v26.33H38.85v-61.95h223.02v61.95C261.87,236.33,248.2,236.33,248.2,236.33z"/>
	</g>
</svg>
