<?xml version="1.0" encoding="utf-8"?>
<!-- Generator: Adobe Illustrator 23.0.4, SVG Export Plug-In . SVG Version: 6.00 Build 0)  -->
<svg version="1.1" id="Layer_1" 
	xmlns="http://www.w3.org/2000/svg" 
	xmlns:xlink="http://www.w3.org/1999/xlink" x="0px" y="0px" viewBox="0 0 300 300" style="enable-background:new 0 0 300 300;" xml:space="preserve">
	<style type="text/css">
	.st0{fill:#fefefe;}
	</style>
	<g>
		<path class="st0" d="M247.44,71.25h-20.75V50.5c0-3.82-3.1-6.92-6.92-6.92h-27.66c-3.82,0-6.92,3.1-6.92,6.92v20.75h-69.16V50.5
		c0-3.82-3.1-6.92-6.92-6.92H81.46c-3.82,0-6.92,3.1-6.92,6.92v20.75H53.79c-3.82,0-6.92,3.1-6.92,6.92v159.07
		c0,3.82,3.1,6.92,6.92,6.92h193.65c3.82,0,6.92-3.1,6.92-6.92V78.17C254.36,74.35,251.26,71.25,247.44,71.25z M199.03,57.42h13.83
		V92h-13.83V57.42z M88.37,57.42h13.83V92H88.37V57.42z M60.71,85.08h13.83v13.83c0,3.82,3.1,6.92,6.92,6.92h27.66
		c3.82,0,6.92-3.1,6.92-6.92V85.08h69.16v13.83c0,3.82,3.1,6.92,6.92,6.92h27.66c3.82,0,6.92-3.1,6.92-6.92V85.08h13.83v27.66H60.71
		V85.08z M240.53,230.32H60.71V126.58h179.82V230.32z"/>
		<path class="st0" d="M88.37,140.41h13.83c3.82,0,6.92,3.1,6.92,6.92v13.83c0,3.82-3.1,6.92-6.92,6.92H88.37
		c-3.82,0-6.92-3.1-6.92-6.92v-13.83C81.46,143.51,84.55,140.41,88.37,140.41z"/>
		<path class="st0" d="M88.37,188.82h13.83c3.82,0,6.92,3.1,6.92,6.92v13.83c0,3.82-3.1,6.92-6.92,6.92H88.37
		c-3.82,0-6.92-3.1-6.92-6.92v-13.83C81.46,191.92,84.55,188.82,88.37,188.82z"/>
		<path class="st0" d="M143.7,140.41h13.83c3.82,0,6.92,3.1,6.92,6.92v13.83c0,3.82-3.1,6.92-6.92,6.92H143.7
		c-3.82,0-6.92-3.1-6.92-6.92v-13.83C136.79,143.51,139.88,140.41,143.7,140.41z"/>
		<path class="st0" d="M143.7,188.82h13.83c3.82,0,6.92,3.1,6.92,6.92v13.83c0,3.82-3.1,6.92-6.92,6.92H143.7
		c-3.82,0-6.92-3.1-6.92-6.92v-13.83C136.79,191.92,139.88,188.82,143.7,188.82z"/>
		<path class="st0" d="M199.03,140.41h13.83c3.82,0,6.92,3.1,6.92,6.92v13.83c0,3.82-3.1,6.92-6.92,6.92h-13.83
		c-3.82,0-6.92-3.1-6.92-6.92v-13.83C192.11,143.51,195.21,140.41,199.03,140.41z"/>
		<path class="st0" d="M199.03,188.82h13.83c3.82,0,6.92,3.1,6.92,6.92v13.83c0,3.82-3.1,6.92-6.92,6.92h-13.83
		c-3.82,0-6.92-3.1-6.92-6.92v-13.83C192.11,191.92,195.21,188.82,199.03,188.82z"/>
	</g>
</svg>
